<mxfile host="app.diagrams.net" agent="Mozilla/5.0 (X11; Linux x86_64; rv:140.0) Gecko/20100101 Firefox/140.0" version="28.1.1">
  <diagram name="Página-1" id="DRxTatm9X1ZAmhve8Zqo">
    <mxGraphModel dx="1426" dy="764" grid="0" gridSize="10" guides="1" tooltips="1" connect="1" arrows="1" fold="1" page="1" pageScale="1" pageWidth="827" pageHeight="1169" background="light-dark(#FFFFFF,#B3B3B3)" math="0" shadow="0">
      <root>
        <mxCell id="0" />
        <mxCell id="1" parent="0" />
        <mxCell id="Bo7gfyNAVthwPegU8DVv-2" value="&lt;u&gt;CPF&lt;/u&gt;" style="ellipse;whiteSpace=wrap;html=1;fillColor=default;" parent="1" vertex="1">
          <mxGeometry x="190" y="120" width="80" height="40" as="geometry" />
        </mxCell>
        <mxCell id="Bo7gfyNAVthwPegU8DVv-3" value="" style="endArrow=none;html=1;rounded=0;entryX=0.5;entryY=1;entryDx=0;entryDy=0;exitX=0.4;exitY=0.075;exitDx=0;exitDy=0;exitPerimeter=0;fillColor=default;" parent="1" source="Bo7gfyNAVthwPegU8DVv-24" target="Bo7gfyNAVthwPegU8DVv-2" edge="1">
          <mxGeometry relative="1" as="geometry">
            <mxPoint x="230" y="220" as="sourcePoint" />
            <mxPoint x="440" y="400" as="targetPoint" />
          </mxGeometry>
        </mxCell>
        <mxCell id="Bo7gfyNAVthwPegU8DVv-4" value="&lt;div&gt;NOME&lt;/div&gt;" style="ellipse;whiteSpace=wrap;html=1;align=center;fillColor=default;" parent="1" vertex="1">
          <mxGeometry x="100" y="150" width="80" height="30" as="geometry" />
        </mxCell>
        <mxCell id="Bo7gfyNAVthwPegU8DVv-5" value="" style="endArrow=none;html=1;rounded=0;entryX=0.738;entryY=0.933;entryDx=0;entryDy=0;entryPerimeter=0;exitX=0.18;exitY=0.025;exitDx=0;exitDy=0;exitPerimeter=0;" parent="1" source="Bo7gfyNAVthwPegU8DVv-24" target="Bo7gfyNAVthwPegU8DVv-4" edge="1">
          <mxGeometry relative="1" as="geometry">
            <mxPoint x="200" y="220" as="sourcePoint" />
            <mxPoint x="440" y="400" as="targetPoint" />
          </mxGeometry>
        </mxCell>
        <mxCell id="Bo7gfyNAVthwPegU8DVv-6" value="&lt;div&gt;ENDEREÇO&lt;/div&gt;" style="ellipse;whiteSpace=wrap;html=1;align=center;fillColor=default;" parent="1" vertex="1">
          <mxGeometry x="280" y="150" width="80" height="35" as="geometry" />
        </mxCell>
        <mxCell id="Bo7gfyNAVthwPegU8DVv-7" value="" style="endArrow=none;html=1;rounded=0;exitX=0.75;exitY=0;exitDx=0;exitDy=0;fillColor=default;" parent="1" source="Bo7gfyNAVthwPegU8DVv-24" edge="1">
          <mxGeometry relative="1" as="geometry">
            <mxPoint x="269.96000000000004" y="220" as="sourcePoint" />
            <mxPoint x="310" y="182" as="targetPoint" />
          </mxGeometry>
        </mxCell>
        <mxCell id="Bo7gfyNAVthwPegU8DVv-8" value="&lt;div&gt;TELEFONE&lt;/div&gt;" style="ellipse;whiteSpace=wrap;html=1;align=center;fillColor=default;" parent="1" vertex="1">
          <mxGeometry x="30" y="190" width="80" height="40" as="geometry" />
        </mxCell>
        <mxCell id="Bo7gfyNAVthwPegU8DVv-9" value="" style="endArrow=none;html=1;rounded=0;entryX=0;entryY=0.5;entryDx=0;entryDy=0;exitX=1;exitY=0.5;exitDx=0;exitDy=0;fillColor=default;" parent="1" source="Bo7gfyNAVthwPegU8DVv-8" target="Bo7gfyNAVthwPegU8DVv-24" edge="1">
          <mxGeometry relative="1" as="geometry">
            <mxPoint x="90" y="230" as="sourcePoint" />
            <mxPoint x="170" y="250" as="targetPoint" />
          </mxGeometry>
        </mxCell>
        <mxCell id="Bo7gfyNAVthwPegU8DVv-10" value="&lt;div&gt;SEXO&lt;/div&gt;" style="ellipse;whiteSpace=wrap;html=1;align=center;fillColor=default;" parent="1" vertex="1">
          <mxGeometry x="20" y="240" width="70" height="30" as="geometry" />
        </mxCell>
        <mxCell id="Bo7gfyNAVthwPegU8DVv-12" value="" style="endArrow=none;html=1;rounded=0;exitX=1;exitY=0.5;exitDx=0;exitDy=0;entryX=0;entryY=0.75;entryDx=0;entryDy=0;fillColor=default;" parent="1" source="Bo7gfyNAVthwPegU8DVv-10" target="Bo7gfyNAVthwPegU8DVv-24" edge="1">
          <mxGeometry relative="1" as="geometry">
            <mxPoint x="280" y="400" as="sourcePoint" />
            <mxPoint x="170" y="265" as="targetPoint" />
          </mxGeometry>
        </mxCell>
        <mxCell id="Bo7gfyNAVthwPegU8DVv-14" value="&lt;div&gt;SALÁRIO&lt;/div&gt;" style="ellipse;whiteSpace=wrap;html=1;align=center;fillColor=default;" parent="1" vertex="1">
          <mxGeometry x="350" y="195" width="80" height="30" as="geometry" />
        </mxCell>
        <mxCell id="Bo7gfyNAVthwPegU8DVv-15" value="" style="endArrow=none;html=1;rounded=0;exitX=1;exitY=0.25;exitDx=0;exitDy=0;entryX=0;entryY=0.5;entryDx=0;entryDy=0;fillColor=default;" parent="1" target="Bo7gfyNAVthwPegU8DVv-14" edge="1">
          <mxGeometry relative="1" as="geometry">
            <mxPoint x="290" y="235" as="sourcePoint" />
            <mxPoint x="440" y="400" as="targetPoint" />
          </mxGeometry>
        </mxCell>
        <mxCell id="Bo7gfyNAVthwPegU8DVv-16" value="" style="resizable=0;html=1;whiteSpace=wrap;align=right;verticalAlign=bottom;fillColor=default;" parent="Bo7gfyNAVthwPegU8DVv-15" connectable="0" vertex="1">
          <mxGeometry x="1" relative="1" as="geometry" />
        </mxCell>
        <mxCell id="Bo7gfyNAVthwPegU8DVv-17" value="GERENCIAR" style="shape=rhombus;perimeter=rhombusPerimeter;whiteSpace=wrap;html=1;align=center;fillColor=default;" parent="1" vertex="1">
          <mxGeometry x="420" y="210" width="120" height="70" as="geometry" />
        </mxCell>
        <mxCell id="Bo7gfyNAVthwPegU8DVv-19" value="" style="endArrow=none;html=1;rounded=0;exitX=1;exitY=0.5;exitDx=0;exitDy=0;entryX=0;entryY=0.5;entryDx=0;entryDy=0;fillColor=default;" parent="1" target="Bo7gfyNAVthwPegU8DVv-17" edge="1">
          <mxGeometry relative="1" as="geometry">
            <mxPoint x="290" y="250" as="sourcePoint" />
            <mxPoint x="440" y="400" as="targetPoint" />
          </mxGeometry>
        </mxCell>
        <mxCell id="Bo7gfyNAVthwPegU8DVv-20" value="1" style="resizable=0;html=1;whiteSpace=wrap;align=right;verticalAlign=bottom;fillColor=default;" parent="Bo7gfyNAVthwPegU8DVv-19" connectable="0" vertex="1">
          <mxGeometry x="1" relative="1" as="geometry" />
        </mxCell>
        <mxCell id="Bo7gfyNAVthwPegU8DVv-21" value="" style="endArrow=none;html=1;rounded=0;exitX=1;exitY=0.5;exitDx=0;exitDy=0;fillColor=default;" parent="1" source="Bo7gfyNAVthwPegU8DVv-17" edge="1">
          <mxGeometry relative="1" as="geometry">
            <mxPoint x="280" y="400" as="sourcePoint" />
            <mxPoint x="680" y="250" as="targetPoint" />
          </mxGeometry>
        </mxCell>
        <mxCell id="Bo7gfyNAVthwPegU8DVv-22" value="N" style="resizable=0;html=1;whiteSpace=wrap;align=right;verticalAlign=bottom;fillColor=default;" parent="Bo7gfyNAVthwPegU8DVv-21" connectable="0" vertex="1">
          <mxGeometry x="1" relative="1" as="geometry">
            <mxPoint x="-20" as="offset" />
          </mxGeometry>
        </mxCell>
        <mxCell id="Bo7gfyNAVthwPegU8DVv-23" value="&lt;div&gt;DEPARTAMENTO&lt;/div&gt;" style="whiteSpace=wrap;html=1;align=center;fillColor=default;" parent="1" vertex="1">
          <mxGeometry x="660" y="230" width="120" height="40" as="geometry" />
        </mxCell>
        <mxCell id="Bo7gfyNAVthwPegU8DVv-104" value="N" style="edgeStyle=orthogonalEdgeStyle;rounded=0;orthogonalLoop=1;jettySize=auto;html=1;exitX=0.75;exitY=1;exitDx=0;exitDy=0;entryX=0;entryY=0;entryDx=0;entryDy=0;shape=link;fontSize=12;fillColor=default;" parent="1" source="Bo7gfyNAVthwPegU8DVv-24" target="Bo7gfyNAVthwPegU8DVv-95" edge="1">
          <mxGeometry x="0.8909" y="10" relative="1" as="geometry">
            <mxPoint as="offset" />
          </mxGeometry>
        </mxCell>
        <mxCell id="Bo7gfyNAVthwPegU8DVv-24" value="&lt;div&gt;FUNCIONÁRIO&lt;/div&gt;" style="whiteSpace=wrap;html=1;align=center;fillColor=default;" parent="1" vertex="1">
          <mxGeometry x="190" y="225" width="100" height="40" as="geometry" />
        </mxCell>
        <mxCell id="Bo7gfyNAVthwPegU8DVv-25" value="SUPERVISIONAR" style="shape=rhombus;perimeter=rhombusPerimeter;whiteSpace=wrap;html=1;align=center;fillColor=default;" parent="1" vertex="1">
          <mxGeometry x="40" y="300" width="140" height="70" as="geometry" />
        </mxCell>
        <mxCell id="Bo7gfyNAVthwPegU8DVv-42" value="&lt;div&gt;POSSUI&lt;/div&gt;" style="shape=rhombus;double=1;perimeter=rhombusPerimeter;whiteSpace=wrap;html=1;align=center;fillColor=default;" parent="1" vertex="1">
          <mxGeometry x="180" y="350" width="120" height="60" as="geometry" />
        </mxCell>
        <mxCell id="Bo7gfyNAVthwPegU8DVv-43" value="" style="endArrow=none;html=1;rounded=0;exitX=0.5;exitY=1;exitDx=0;exitDy=0;entryX=0.5;entryY=0;entryDx=0;entryDy=0;fillColor=default;" parent="1" source="Bo7gfyNAVthwPegU8DVv-24" target="Bo7gfyNAVthwPegU8DVv-42" edge="1">
          <mxGeometry relative="1" as="geometry">
            <mxPoint x="330" y="400" as="sourcePoint" />
            <mxPoint x="490" y="400" as="targetPoint" />
          </mxGeometry>
        </mxCell>
        <mxCell id="Bo7gfyNAVthwPegU8DVv-44" value="1" style="resizable=0;html=1;whiteSpace=wrap;align=right;verticalAlign=bottom;fillColor=default;" parent="Bo7gfyNAVthwPegU8DVv-43" connectable="0" vertex="1">
          <mxGeometry x="1" relative="1" as="geometry" />
        </mxCell>
        <mxCell id="Bo7gfyNAVthwPegU8DVv-45" value="&lt;div&gt;DEPENDENTES&lt;/div&gt;" style="ellipse;shape=doubleEllipse;margin=3;whiteSpace=wrap;html=1;align=center;fillColor=default;" parent="1" vertex="1">
          <mxGeometry x="180" y="460" width="120" height="50" as="geometry" />
        </mxCell>
        <mxCell id="Bo7gfyNAVthwPegU8DVv-46" value="" style="endArrow=none;html=1;rounded=0;exitX=0.5;exitY=1;exitDx=0;exitDy=0;entryX=0.5;entryY=0;entryDx=0;entryDy=0;fillColor=default;" parent="1" source="Bo7gfyNAVthwPegU8DVv-42" target="Bo7gfyNAVthwPegU8DVv-45" edge="1">
          <mxGeometry relative="1" as="geometry">
            <mxPoint x="330" y="400" as="sourcePoint" />
            <mxPoint x="490" y="400" as="targetPoint" />
          </mxGeometry>
        </mxCell>
        <mxCell id="Bo7gfyNAVthwPegU8DVv-47" value="N" style="resizable=0;html=1;whiteSpace=wrap;align=right;verticalAlign=bottom;fillColor=default;" parent="Bo7gfyNAVthwPegU8DVv-46" connectable="0" vertex="1">
          <mxGeometry x="1" relative="1" as="geometry" />
        </mxCell>
        <mxCell id="Bo7gfyNAVthwPegU8DVv-48" value="&lt;div&gt;CPF&lt;/div&gt;" style="ellipse;whiteSpace=wrap;html=1;align=center;fontStyle=4;fillColor=default;" parent="1" vertex="1">
          <mxGeometry x="105" y="530" width="70" height="40" as="geometry" />
        </mxCell>
        <mxCell id="Bo7gfyNAVthwPegU8DVv-49" value="" style="endArrow=none;html=1;rounded=0;exitX=0.5;exitY=0;exitDx=0;exitDy=0;entryX=0;entryY=1;entryDx=0;entryDy=0;fillColor=default;" parent="1" source="Bo7gfyNAVthwPegU8DVv-48" target="Bo7gfyNAVthwPegU8DVv-45" edge="1">
          <mxGeometry relative="1" as="geometry">
            <mxPoint x="330" y="400" as="sourcePoint" />
            <mxPoint x="490" y="400" as="targetPoint" />
          </mxGeometry>
        </mxCell>
        <mxCell id="Bo7gfyNAVthwPegU8DVv-50" value="&lt;div&gt;GRAU DE PARENTESCO&lt;/div&gt;" style="ellipse;whiteSpace=wrap;html=1;align=center;fillColor=default;" parent="1" vertex="1">
          <mxGeometry x="40" y="450" width="110" height="50" as="geometry" />
        </mxCell>
        <mxCell id="Bo7gfyNAVthwPegU8DVv-51" value="" style="endArrow=none;html=1;rounded=0;exitX=1;exitY=0.5;exitDx=0;exitDy=0;entryX=0;entryY=0.5;entryDx=0;entryDy=0;fillColor=default;" parent="1" source="Bo7gfyNAVthwPegU8DVv-50" target="Bo7gfyNAVthwPegU8DVv-45" edge="1">
          <mxGeometry relative="1" as="geometry">
            <mxPoint x="330" y="400" as="sourcePoint" />
            <mxPoint x="490" y="400" as="targetPoint" />
          </mxGeometry>
        </mxCell>
        <mxCell id="Bo7gfyNAVthwPegU8DVv-52" value="&lt;div&gt;DATA DE NASCIMENTO&lt;/div&gt;" style="ellipse;whiteSpace=wrap;html=1;align=center;fillColor=default;" parent="1" vertex="1">
          <mxGeometry x="180" y="565" width="110" height="45" as="geometry" />
        </mxCell>
        <mxCell id="Bo7gfyNAVthwPegU8DVv-53" value="" style="endArrow=none;html=1;rounded=0;entryX=0.5;entryY=1;entryDx=0;entryDy=0;exitX=0.5;exitY=0;exitDx=0;exitDy=0;fillColor=default;" parent="1" source="Bo7gfyNAVthwPegU8DVv-52" target="Bo7gfyNAVthwPegU8DVv-45" edge="1">
          <mxGeometry relative="1" as="geometry">
            <mxPoint x="240" y="560" as="sourcePoint" />
            <mxPoint x="240" y="520" as="targetPoint" />
          </mxGeometry>
        </mxCell>
        <mxCell id="Bo7gfyNAVthwPegU8DVv-55" value="&lt;div&gt;NOME&lt;/div&gt;" style="ellipse;whiteSpace=wrap;html=1;align=center;fillColor=default;" parent="1" vertex="1">
          <mxGeometry x="300" y="545" width="70" height="40" as="geometry" />
        </mxCell>
        <mxCell id="Bo7gfyNAVthwPegU8DVv-56" value="" style="endArrow=none;html=1;rounded=0;exitX=1;exitY=1;exitDx=0;exitDy=0;entryX=0.371;entryY=0.05;entryDx=0;entryDy=0;entryPerimeter=0;fillColor=default;" parent="1" source="Bo7gfyNAVthwPegU8DVv-45" target="Bo7gfyNAVthwPegU8DVv-55" edge="1">
          <mxGeometry relative="1" as="geometry">
            <mxPoint x="330" y="400" as="sourcePoint" />
            <mxPoint x="490" y="400" as="targetPoint" />
          </mxGeometry>
        </mxCell>
        <mxCell id="Bo7gfyNAVthwPegU8DVv-57" value="&lt;div&gt;SEXO&lt;/div&gt;" style="ellipse;whiteSpace=wrap;html=1;align=center;fillColor=default;" parent="1" vertex="1">
          <mxGeometry x="330" y="500" width="70" height="40" as="geometry" />
        </mxCell>
        <mxCell id="Bo7gfyNAVthwPegU8DVv-58" value="" style="endArrow=none;html=1;rounded=0;exitX=1.025;exitY=0.66;exitDx=0;exitDy=0;exitPerimeter=0;entryX=0;entryY=0;entryDx=0;entryDy=0;fillColor=default;" parent="1" source="Bo7gfyNAVthwPegU8DVv-45" target="Bo7gfyNAVthwPegU8DVv-57" edge="1">
          <mxGeometry relative="1" as="geometry">
            <mxPoint x="330" y="400" as="sourcePoint" />
            <mxPoint x="490" y="400" as="targetPoint" />
          </mxGeometry>
        </mxCell>
        <mxCell id="Bo7gfyNAVthwPegU8DVv-59" value="&lt;div&gt;NOME&lt;/div&gt;" style="ellipse;whiteSpace=wrap;html=1;align=center;fillColor=default;" parent="1" vertex="1">
          <mxGeometry x="685" y="150" width="70" height="40" as="geometry" />
        </mxCell>
        <mxCell id="Bo7gfyNAVthwPegU8DVv-60" value="" style="endArrow=none;html=1;rounded=0;entryX=0.5;entryY=1;entryDx=0;entryDy=0;exitX=0.5;exitY=0;exitDx=0;exitDy=0;fillColor=default;" parent="1" source="Bo7gfyNAVthwPegU8DVv-23" target="Bo7gfyNAVthwPegU8DVv-59" edge="1">
          <mxGeometry relative="1" as="geometry">
            <mxPoint x="310" y="400" as="sourcePoint" />
            <mxPoint x="470" y="400" as="targetPoint" />
          </mxGeometry>
        </mxCell>
        <mxCell id="Bo7gfyNAVthwPegU8DVv-62" value="&lt;div&gt;SIGLA&lt;/div&gt;" style="ellipse;whiteSpace=wrap;html=1;align=center;fontStyle=4;" parent="1" vertex="1">
          <mxGeometry x="757" y="170" width="70" height="40" as="geometry" />
        </mxCell>
        <mxCell id="Bo7gfyNAVthwPegU8DVv-63" value="" style="endArrow=none;html=1;rounded=0;exitX=0.5;exitY=1;exitDx=0;exitDy=0;entryX=0.85;entryY=0;entryDx=0;entryDy=0;entryPerimeter=0;fillColor=default;" parent="1" source="Bo7gfyNAVthwPegU8DVv-62" target="Bo7gfyNAVthwPegU8DVv-23" edge="1">
          <mxGeometry relative="1" as="geometry">
            <mxPoint x="330" y="400" as="sourcePoint" />
            <mxPoint x="490" y="400" as="targetPoint" />
          </mxGeometry>
        </mxCell>
        <mxCell id="Bo7gfyNAVthwPegU8DVv-64" value="&lt;div&gt;LOCAIS&lt;/div&gt;" style="ellipse;whiteSpace=wrap;html=1;align=center;fillColor=default;" parent="1" vertex="1">
          <mxGeometry x="600" y="170" width="70" height="40" as="geometry" />
        </mxCell>
        <mxCell id="Bo7gfyNAVthwPegU8DVv-65" value="" style="endArrow=none;html=1;rounded=0;exitX=1;exitY=1;exitDx=0;exitDy=0;fillColor=default;" parent="1" source="Bo7gfyNAVthwPegU8DVv-64" target="Bo7gfyNAVthwPegU8DVv-23" edge="1">
          <mxGeometry relative="1" as="geometry">
            <mxPoint x="330" y="400" as="sourcePoint" />
            <mxPoint x="490" y="400" as="targetPoint" />
          </mxGeometry>
        </mxCell>
        <mxCell id="Bo7gfyNAVthwPegU8DVv-66" value="CIDADE" style="ellipse;whiteSpace=wrap;html=1;align=center;fillColor=default;" parent="1" vertex="1">
          <mxGeometry x="630" y="100" width="70" height="40" as="geometry" />
        </mxCell>
        <mxCell id="Bo7gfyNAVthwPegU8DVv-67" value="" style="endArrow=none;html=1;rounded=0;exitX=0.4;exitY=1;exitDx=0;exitDy=0;exitPerimeter=0;entryX=0.686;entryY=0.05;entryDx=0;entryDy=0;entryPerimeter=0;fillColor=default;" parent="1" source="Bo7gfyNAVthwPegU8DVv-66" target="Bo7gfyNAVthwPegU8DVv-64" edge="1">
          <mxGeometry relative="1" as="geometry">
            <mxPoint x="330" y="400" as="sourcePoint" />
            <mxPoint x="650" y="160" as="targetPoint" />
          </mxGeometry>
        </mxCell>
        <mxCell id="Bo7gfyNAVthwPegU8DVv-68" value="ESTADO" style="ellipse;whiteSpace=wrap;html=1;align=center;fillColor=default;" parent="1" vertex="1">
          <mxGeometry x="550" y="110" width="70" height="40" as="geometry" />
        </mxCell>
        <mxCell id="Bo7gfyNAVthwPegU8DVv-69" value="" style="endArrow=none;html=1;rounded=0;exitX=0.5;exitY=1;exitDx=0;exitDy=0;entryX=0.257;entryY=0.05;entryDx=0;entryDy=0;entryPerimeter=0;fillColor=default;" parent="1" source="Bo7gfyNAVthwPegU8DVv-68" target="Bo7gfyNAVthwPegU8DVv-64" edge="1">
          <mxGeometry relative="1" as="geometry">
            <mxPoint x="330" y="400" as="sourcePoint" />
            <mxPoint x="490" y="400" as="targetPoint" />
          </mxGeometry>
        </mxCell>
        <mxCell id="Bo7gfyNAVthwPegU8DVv-70" value="PAÍS" style="ellipse;whiteSpace=wrap;html=1;align=center;fillColor=default;" parent="1" vertex="1">
          <mxGeometry x="500" y="150" width="60" height="40" as="geometry" />
        </mxCell>
        <mxCell id="Bo7gfyNAVthwPegU8DVv-71" value="" style="endArrow=none;html=1;rounded=0;exitX=0.983;exitY=0.725;exitDx=0;exitDy=0;exitPerimeter=0;entryX=0;entryY=0.5;entryDx=0;entryDy=0;fillColor=default;" parent="1" source="Bo7gfyNAVthwPegU8DVv-70" target="Bo7gfyNAVthwPegU8DVv-64" edge="1">
          <mxGeometry relative="1" as="geometry">
            <mxPoint x="330" y="400" as="sourcePoint" />
            <mxPoint x="600" y="190" as="targetPoint" />
          </mxGeometry>
        </mxCell>
        <mxCell id="Bo7gfyNAVthwPegU8DVv-72" value="DESENVOLVER" style="shape=rhombus;perimeter=rhombusPerimeter;whiteSpace=wrap;html=1;align=center;fillColor=default;" parent="1" vertex="1">
          <mxGeometry x="655" y="320" width="130" height="80" as="geometry" />
        </mxCell>
        <mxCell id="Bo7gfyNAVthwPegU8DVv-73" value="" style="endArrow=none;html=1;rounded=0;exitX=0.5;exitY=1;exitDx=0;exitDy=0;entryX=0.5;entryY=0;entryDx=0;entryDy=0;fillColor=default;" parent="1" source="Bo7gfyNAVthwPegU8DVv-23" target="Bo7gfyNAVthwPegU8DVv-72" edge="1">
          <mxGeometry relative="1" as="geometry">
            <mxPoint x="330" y="400" as="sourcePoint" />
            <mxPoint x="490" y="400" as="targetPoint" />
          </mxGeometry>
        </mxCell>
        <mxCell id="Bo7gfyNAVthwPegU8DVv-74" value="N" style="resizable=0;html=1;whiteSpace=wrap;align=right;verticalAlign=bottom;fillColor=default;" parent="Bo7gfyNAVthwPegU8DVv-73" connectable="0" vertex="1">
          <mxGeometry x="1" relative="1" as="geometry" />
        </mxCell>
        <mxCell id="Bo7gfyNAVthwPegU8DVv-75" value="PROJETOS" style="whiteSpace=wrap;html=1;align=center;fillColor=default;" parent="1" vertex="1">
          <mxGeometry x="670" y="465" width="100" height="40" as="geometry" />
        </mxCell>
        <mxCell id="Bo7gfyNAVthwPegU8DVv-76" value="" style="endArrow=none;html=1;rounded=0;exitX=0.5;exitY=1;exitDx=0;exitDy=0;entryX=0.5;entryY=0;entryDx=0;entryDy=0;fillColor=default;" parent="1" source="Bo7gfyNAVthwPegU8DVv-72" target="Bo7gfyNAVthwPegU8DVv-75" edge="1">
          <mxGeometry relative="1" as="geometry">
            <mxPoint x="330" y="400" as="sourcePoint" />
            <mxPoint x="720" y="460" as="targetPoint" />
          </mxGeometry>
        </mxCell>
        <mxCell id="Bo7gfyNAVthwPegU8DVv-77" value="N" style="resizable=0;html=1;whiteSpace=wrap;align=right;verticalAlign=bottom;fillColor=default;" parent="Bo7gfyNAVthwPegU8DVv-76" connectable="0" vertex="1">
          <mxGeometry x="1" relative="1" as="geometry" />
        </mxCell>
        <mxCell id="Bo7gfyNAVthwPegU8DVv-78" value="HORAS" style="ellipse;whiteSpace=wrap;html=1;align=center;" parent="1" vertex="1">
          <mxGeometry x="755" y="290" width="65" height="40" as="geometry" />
        </mxCell>
        <mxCell id="Bo7gfyNAVthwPegU8DVv-79" value="" style="endArrow=none;html=1;rounded=0;exitX=1;exitY=0;exitDx=0;exitDy=0;entryX=0.292;entryY=0.925;entryDx=0;entryDy=0;entryPerimeter=0;fillColor=default;" parent="1" source="Bo7gfyNAVthwPegU8DVv-72" target="Bo7gfyNAVthwPegU8DVv-78" edge="1">
          <mxGeometry relative="1" as="geometry">
            <mxPoint x="330" y="400" as="sourcePoint" />
            <mxPoint x="780" y="320" as="targetPoint" />
          </mxGeometry>
        </mxCell>
        <mxCell id="Bo7gfyNAVthwPegU8DVv-80" value="SIGLA" style="ellipse;whiteSpace=wrap;html=1;align=center;fontStyle=4;fillColor=default;" parent="1" vertex="1">
          <mxGeometry x="690" y="545" width="60" height="40" as="geometry" />
        </mxCell>
        <mxCell id="Bo7gfyNAVthwPegU8DVv-81" value="" style="endArrow=none;html=1;rounded=0;entryX=0.5;entryY=1;entryDx=0;entryDy=0;exitX=0.5;exitY=0;exitDx=0;exitDy=0;fillColor=default;" parent="1" source="Bo7gfyNAVthwPegU8DVv-80" target="Bo7gfyNAVthwPegU8DVv-75" edge="1">
          <mxGeometry relative="1" as="geometry">
            <mxPoint x="720" y="540" as="sourcePoint" />
            <mxPoint x="490" y="400" as="targetPoint" />
          </mxGeometry>
        </mxCell>
        <mxCell id="Bo7gfyNAVthwPegU8DVv-82" value="NOME" style="ellipse;whiteSpace=wrap;html=1;align=center;" parent="1" vertex="1">
          <mxGeometry x="763" y="525" width="58" height="40" as="geometry" />
        </mxCell>
        <mxCell id="Bo7gfyNAVthwPegU8DVv-83" value="" style="endArrow=none;html=1;rounded=0;exitX=1;exitY=1;exitDx=0;exitDy=0;entryX=0.31;entryY=0.075;entryDx=0;entryDy=0;entryPerimeter=0;fillColor=default;" parent="1" source="Bo7gfyNAVthwPegU8DVv-75" target="Bo7gfyNAVthwPegU8DVv-82" edge="1">
          <mxGeometry relative="1" as="geometry">
            <mxPoint x="330" y="400" as="sourcePoint" />
            <mxPoint x="490" y="400" as="targetPoint" />
          </mxGeometry>
        </mxCell>
        <mxCell id="Bo7gfyNAVthwPegU8DVv-84" value="DATA DE CONCLUSÃO" style="ellipse;whiteSpace=wrap;html=1;align=center;fillColor=default;" parent="1" vertex="1">
          <mxGeometry x="560" y="530" width="110" height="40" as="geometry" />
        </mxCell>
        <mxCell id="Bo7gfyNAVthwPegU8DVv-86" value="" style="endArrow=none;html=1;rounded=0;exitX=0.727;exitY=-0.025;exitDx=0;exitDy=0;exitPerimeter=0;entryX=0;entryY=1;entryDx=0;entryDy=0;fillColor=default;" parent="1" source="Bo7gfyNAVthwPegU8DVv-84" target="Bo7gfyNAVthwPegU8DVv-75" edge="1">
          <mxGeometry relative="1" as="geometry">
            <mxPoint x="330" y="400" as="sourcePoint" />
            <mxPoint x="490" y="400" as="targetPoint" />
          </mxGeometry>
        </mxCell>
        <mxCell id="Bo7gfyNAVthwPegU8DVv-87" value="&lt;div&gt;HORAS&lt;/div&gt;" style="ellipse;whiteSpace=wrap;html=1;align=center;dashed=1;fillColor=default;" parent="1" vertex="1">
          <mxGeometry x="560" y="470" width="70" height="40" as="geometry" />
        </mxCell>
        <mxCell id="Bo7gfyNAVthwPegU8DVv-88" value="" style="endArrow=none;html=1;rounded=0;exitX=0;exitY=0.5;exitDx=0;exitDy=0;entryX=1;entryY=0.5;entryDx=0;entryDy=0;fillColor=default;" parent="1" source="Bo7gfyNAVthwPegU8DVv-75" target="Bo7gfyNAVthwPegU8DVv-87" edge="1">
          <mxGeometry relative="1" as="geometry">
            <mxPoint x="330" y="400" as="sourcePoint" />
            <mxPoint x="490" y="400" as="targetPoint" />
          </mxGeometry>
        </mxCell>
        <mxCell id="Bo7gfyNAVthwPegU8DVv-91" value="" style="endArrow=none;html=1;rounded=0;exitX=0;exitY=1;exitDx=0;exitDy=0;entryX=0.5;entryY=0;entryDx=0;entryDy=0;fillColor=default;" parent="1" source="Bo7gfyNAVthwPegU8DVv-24" target="Bo7gfyNAVthwPegU8DVv-25" edge="1">
          <mxGeometry relative="1" as="geometry">
            <mxPoint x="330" y="400" as="sourcePoint" />
            <mxPoint x="490" y="400" as="targetPoint" />
          </mxGeometry>
        </mxCell>
        <mxCell id="Bo7gfyNAVthwPegU8DVv-92" value="1" style="resizable=0;html=1;whiteSpace=wrap;align=right;verticalAlign=bottom;fillColor=default;" parent="Bo7gfyNAVthwPegU8DVv-91" connectable="0" vertex="1">
          <mxGeometry x="1" relative="1" as="geometry" />
        </mxCell>
        <mxCell id="Bo7gfyNAVthwPegU8DVv-93" value="" style="endArrow=none;html=1;rounded=0;exitX=0.25;exitY=1;exitDx=0;exitDy=0;entryX=1;entryY=0.5;entryDx=0;entryDy=0;fillColor=default;" parent="1" source="Bo7gfyNAVthwPegU8DVv-24" target="Bo7gfyNAVthwPegU8DVv-25" edge="1">
          <mxGeometry relative="1" as="geometry">
            <mxPoint x="330" y="400" as="sourcePoint" />
            <mxPoint x="490" y="400" as="targetPoint" />
          </mxGeometry>
        </mxCell>
        <mxCell id="Bo7gfyNAVthwPegU8DVv-94" value="N" style="resizable=0;html=1;whiteSpace=wrap;align=right;verticalAlign=bottom;fillColor=default;" parent="Bo7gfyNAVthwPegU8DVv-93" connectable="0" vertex="1">
          <mxGeometry x="1" relative="1" as="geometry" />
        </mxCell>
        <mxCell id="Bo7gfyNAVthwPegU8DVv-107" value="1" style="edgeStyle=orthogonalEdgeStyle;rounded=0;orthogonalLoop=1;jettySize=auto;html=1;exitX=1;exitY=0;exitDx=0;exitDy=0;entryX=0;entryY=0.75;entryDx=0;entryDy=0;endArrow=none;endFill=0;fontSize=14;fillColor=default;" parent="1" source="Bo7gfyNAVthwPegU8DVv-95" target="Bo7gfyNAVthwPegU8DVv-23" edge="1">
          <mxGeometry x="-0.8776" y="-10" relative="1" as="geometry">
            <Array as="points">
              <mxPoint x="510" y="290" />
              <mxPoint x="630" y="290" />
              <mxPoint x="630" y="260" />
            </Array>
            <mxPoint as="offset" />
          </mxGeometry>
        </mxCell>
        <mxCell id="Bo7gfyNAVthwPegU8DVv-109" value="N" style="edgeStyle=orthogonalEdgeStyle;rounded=0;orthogonalLoop=1;jettySize=auto;html=1;exitX=0.5;exitY=1;exitDx=0;exitDy=0;entryX=0.5;entryY=0;entryDx=0;entryDy=0;endArrow=none;endFill=0;fillColor=default;" parent="1" source="Bo7gfyNAVthwPegU8DVv-95" target="Bo7gfyNAVthwPegU8DVv-108" edge="1">
          <mxGeometry x="0.3333" y="-20" relative="1" as="geometry">
            <mxPoint as="offset" />
          </mxGeometry>
        </mxCell>
        <mxCell id="Bo7gfyNAVthwPegU8DVv-95" value="ALOCAR" style="shape=rhombus;perimeter=rhombusPerimeter;whiteSpace=wrap;html=1;align=center;fillColor=default;" parent="1" vertex="1">
          <mxGeometry x="420" y="320" width="120" height="60" as="geometry" />
        </mxCell>
        <mxCell id="Bo7gfyNAVthwPegU8DVv-111" value="&lt;div&gt;N&lt;/div&gt;" style="edgeStyle=orthogonalEdgeStyle;rounded=0;orthogonalLoop=1;jettySize=auto;html=1;exitX=1;exitY=0.5;exitDx=0;exitDy=0;entryX=0;entryY=0.5;entryDx=0;entryDy=0;endArrow=none;endFill=0;fontSize=13;fillColor=default;" parent="1" source="Bo7gfyNAVthwPegU8DVv-108" target="Bo7gfyNAVthwPegU8DVv-72" edge="1">
          <mxGeometry x="-0.8947" y="10" relative="1" as="geometry">
            <mxPoint as="offset" />
          </mxGeometry>
        </mxCell>
        <mxCell id="Bo7gfyNAVthwPegU8DVv-108" value="TRABALHAR" style="shape=rhombus;perimeter=rhombusPerimeter;whiteSpace=wrap;html=1;align=center;fillColor=default;" parent="1" vertex="1">
          <mxGeometry x="420" y="400" width="120" height="70" as="geometry" />
        </mxCell>
        <mxCell id="Bo7gfyNAVthwPegU8DVv-112" value="HORAS" style="ellipse;whiteSpace=wrap;html=1;align=center;fillColor=default;" parent="1" vertex="1">
          <mxGeometry x="331.75" y="370" width="68.25" height="40" as="geometry" />
        </mxCell>
        <mxCell id="Bo7gfyNAVthwPegU8DVv-114" value="" style="endArrow=none;html=1;rounded=0;exitX=1;exitY=1;exitDx=0;exitDy=0;entryX=0;entryY=0;entryDx=0;entryDy=0;fillColor=default;" parent="1" source="Bo7gfyNAVthwPegU8DVv-112" target="Bo7gfyNAVthwPegU8DVv-108" edge="1">
          <mxGeometry relative="1" as="geometry">
            <mxPoint x="330" y="400" as="sourcePoint" />
            <mxPoint x="490" y="400" as="targetPoint" />
          </mxGeometry>
        </mxCell>
      </root>
    </mxGraphModel>
  </diagram>
</mxfile>
